<?xml version="1.0" encoding="UTF-8"?>
<svg id="Layer_1" data-name="Layer 1" xmlns="http://www.w3.org/2000/svg" viewBox="0 0 1731.68 331">
  <g>
    <path d="M462.07,83.4v167.99h-38.43l-3.06-22.44c-10.2,15.98-31.97,26.87-54.41,26.87-85.38,3.49-57.07-119.74-61.55-172.41h41.49v90.46c0,31.97,12.58,44.89,35.71,44.89,26.19,0,38.77-15.3,38.77-47.27v-88.08h41.49Z"/>
    <path d="M494.08,83.4h38.43l2.72,25.51c40.09-62.58,143.68-23.37,136.36,56.45,6.44,79.87-89.04,122.92-136.02,63.59v70.46h-41.49V83.4ZM583.17,218.41c61.81,3.3,61.56-105.52,0-102.36-62.48-2.23-62.74,104.74,0,102.36Z"/>
    <path d="M729.52,200.39c-3,30.24,61.5,31.78,60.19,3.74,0-8.5-4.42-14.62-19.38-18.02-33.73-7.17-77.83-14.34-75.15-55.09-3.35-69.68,134.55-69.92,130.24,1.7h-39.45c2.32-29.68-52.56-31.58-51.69-3.4,0,9.52,7.48,15.64,21.76,19.04,31.43,6.84,75.65,13.37,72.77,52.37,3.24,73-142.91,73.14-138.74-.34h39.45Z"/>
    <path d="M876.16,251.24V117.93h-32.31v-34.69h32.31V30.87h41.49v52.37h32.65v34.69h-32.65v133.31h-41.49Z"/>
    <path d="M1076.88,120.99c-89.01-7.79-58.75,72.96-63.93,130.25h-41.49V83.59h39.11l2.38,24.48c8.43-22.82,38.47-33.12,63.93-25.51v38.43Z"/>
    <path d="M1085.03,167.24c-.36-124.63,180.88-115.22,165.95,9.52l-126.5.34c-.7,51.03,74.57,60.16,88.76,19.72h38.43c-18.8,92.09-173.69,70.72-166.63-29.59ZM1125.5,150.58h84.34c1.08-50.96-80.84-51.42-84.34,0Z"/>
    <path d="M1274.39,203.29c-2.62-54.57,69.3-54.93,112.56-57.13,1.61-23.63-11.95-36.29-34.69-35.71-24.48,0-38.09,10.2-38.09,27.88h-35.37c0-36.39,29.93-60.19,75.49-60.19,97.89-3.59,69.16,110.86,73.11,173.09h-36.39l-3.06-24.82c-20.6,45.99-118.6,36.65-113.58-23.12ZM1387.29,183.22v-8.84c-21.31,1.78-74.45,1.06-70.73,27.21,1.34,39.26,75.26,26.21,70.73-18.36Z"/>
    <path d="M1470.22,251.24V83.24h38.09l3.4,19.72c18.2-34.46,87.91-32.75,101.68,7.14,8.5-19.38,28.23-31.97,53.73-31.97,90.44-3.63,57.48,118.89,63.25,173.09h-41.15v-98.96c0-24.14-12.92-36.73-32.65-36.73s-35.37,12.92-35.37,40.47v95.22h-41.49v-99.3c0-23.46-12.58-36.05-32.31-36.05s-35.71,12.92-35.71,40.13v95.22h-41.49Z"/>
  </g>
  <polygon points="101.86 223.59 70.05 204.35 102.47 187.27 102.47 111.83 47.86 136.47 0 158.1 0 106.42 48.92 84.31 101.72 60.49 149.57 38.92 149.57 215.63 117.04 232.82 101.86 223.59"/>
  <polygon points="101.79 323.45 63.31 303.2 48.99 295.62 24.07 282.5 0 269.8 0 186.77 47.1 165.54 47.1 241.39 76.11 256.68 100.59 269.58 113.65 276.46 113.79 276.56 115.86 277.75 116.59 277.38 131.05 269.76 131.11 269.71 151.46 258.99 188.7 239.36 188.7 21.23 235.8 0 235.8 267.77 186.82 293.59 168.65 303.2 150.26 312.91 115.98 331 101.79 323.45"/>
</svg>