<?xml version="1.0" encoding="UTF-8"?>
<svg id="Layer_1" data-name="Layer 1" xmlns="http://www.w3.org/2000/svg" viewBox="0 0 591.5 830.29">
  <polygon points="255.5 560.87 175.71 512.61 257.05 469.76 257.05 280.52 120.05 342.33 0 396.58 0 266.95 122.7 211.49 255.15 151.74 375.2 97.62 375.2 540.9 293.59 584.02 255.5 560.87"/>
  <polygon points="255.34 811.37 158.81 760.56 122.88 741.56 60.37 708.65 0 676.79 0 468.52 118.15 415.25 118.15 605.51 190.91 643.87 252.32 676.23 285.08 693.5 285.44 693.74 290.62 696.72 292.45 695.8 328.74 676.68 328.88 676.55 379.93 649.65 473.35 600.42 473.35 53.26 591.5 0 591.5 671.7 468.62 736.46 423.04 760.56 376.92 784.93 290.94 830.29 255.34 811.37"/>
</svg>